<svg id="Layer_1" height="512" viewBox="0 0 512 512" width="512" xmlns="http://www.w3.org/2000/svg" data-name="Layer 1"><path d="m401.03 194.38c11.39 17.72-1.34 41.03-22.38 41.03h-.29a49.765 49.765 0 0 0 0 99.53c21.09 0 33.87 23.44 22.33 41.11-35.52 54.4-101.99 91.04-178.13 91.04-113.53 0-205.56-81.73-205.56-182.31s92.03-181.98 205.56-181.98c76.38 0 143.02 36.48 178.47 91.58z" fill="#f3e08c"/><path d="m57 284.78c0-94.6 81.424-172.232 185.573-181.122-6.587-.558-13.26-.858-20.013-.858-113.53 0-205.56 81.4-205.56 181.98s92.03 182.31 205.56 182.31c6.744 0 13.407-.3 19.984-.863-104.135-8.937-185.544-86.85-185.544-181.447z" fill="#d6c478"/><path d="m485.79 200.84a237.722 237.722 0 0 1 1.58 38.38 98.982 98.982 0 0 1 -54.08 0 236.59 236.59 0 0 1 1.59-38.38l.35.04a91.161 91.161 0 0 0 50.21 0z" fill="#f3e08c"/><path d="m487.37 239.22c-.05 1.46-.12 2.91-.21 4.36l-10.69 184.93a74.6 74.6 0 0 1 -8.58 30.69 8.592 8.592 0 0 1 -15.19-.03l-.03-.06a74.574 74.574 0 0 1 -8.47-30.48l-10.7-185.05c-.09-1.45-.16-2.9-.21-4.36a98.982 98.982 0 0 0 54.08 0z" fill="#eb6141"/><path d="m481.91 178.3-7.21-32.46-.11-.19-28.48-.09-.15.28-7.2 32.46q-2.49 11.19-3.88 22.54l.35.04a91.161 91.161 0 0 0 50.21 0l.35-.04q-1.39-11.34-3.88-22.54z" fill="#eb6141"/><path d="m307.29 186.97a25.98 25.98 0 1 1 -25.95 25.98 25.967 25.967 0 0 1 25.95-25.98z" fill="#94ce74"/><ellipse cx="241.97" cy="171.46" fill="#eb6141" rx="25.95" ry="25.98"/><path d="m167.04 147.55a25.985 25.985 0 1 1 -25.95 25.99 25.974 25.974 0 0 1 25.95-25.99z" fill="#94ce74"/><ellipse cx="167.04" cy="395.77" fill="#eb6141" rx="25.95" ry="25.98"/><ellipse cx="101.75" cy="215.03" fill="#a2c6f8" rx="25.95" ry="25.98"/><ellipse cx="101.75" cy="354.28" fill="#a2c6f8" rx="25.95" ry="25.98"/><ellipse cx="69.57" cy="284.65" fill="#eb6141" rx="25.95" ry="25.98"/><path d="m307.29 330.38a25.98 25.98 0 1 1 -25.95 25.98 25.967 25.967 0 0 1 25.95-25.98z" fill="#94ce74"/><ellipse cx="241.97" cy="397.85" fill="#a2c6f8" rx="25.95" ry="25.98"/><path d="m478.86 63.83a56.583 56.583 0 0 1 10.62 63.95l-2.13 4.46a29.808 29.808 0 0 1 -41.24 13.32c-.5-.27-1-.56-1.48-.86a29.827 29.827 0 0 1 -11.02-12.21l-2.31-4.72a56.578 56.578 0 0 1 11.07-65.12l17.96-17.74z" fill="#ba8e75"/><g fill="#264060"><path d="m241.971 203.438a31.981 31.981 0 1 0 -31.952-31.981 32 32 0 0 0 31.952 31.981zm0-51.961a19.981 19.981 0 1 1 -19.952 19.98 19.988 19.988 0 0 1 19.952-19.98z"/><path d="m167.038 205.516a31.981 31.981 0 1 0 -31.953-31.98 32 32 0 0 0 31.953 31.98zm0-51.961a19.981 19.981 0 1 1 -19.953 19.981 19.989 19.989 0 0 1 19.953-19.981z"/><path d="m101.751 183.045a31.981 31.981 0 1 0 31.949 31.981 32 32 0 0 0 -31.949-31.981zm0 51.961a19.981 19.981 0 1 1 19.953-19.98 19.989 19.989 0 0 1 -19.953 19.98z"/><path d="m37.618 284.654a31.953 31.953 0 1 0 31.953-31.981 32 32 0 0 0 -31.953 31.981zm51.9 0a19.953 19.953 0 1 1 -19.952-19.981 19.989 19.989 0 0 1 19.957 19.981z"/><path d="m307.3 244.928a31.981 31.981 0 1 0 -31.953-31.981 32 32 0 0 0 31.953 31.981zm0-51.961a19.981 19.981 0 1 1 -19.953 19.98 19.989 19.989 0 0 1 19.953-19.98z"/><path d="m241.971 429.831a31.981 31.981 0 1 0 -31.952-31.98 32 32 0 0 0 31.952 31.98zm0-51.961a19.981 19.981 0 1 1 -19.952 19.981 19.989 19.989 0 0 1 19.952-19.981z"/><path d="m167.038 427.753a31.981 31.981 0 1 0 -31.953-31.981 32 32 0 0 0 31.953 31.981zm0-51.961a19.981 19.981 0 1 1 -19.953 19.98 19.989 19.989 0 0 1 19.953-19.98z"/><path d="m101.751 322.3a31.981 31.981 0 1 0 31.949 31.982 32 32 0 0 0 -31.949-31.982zm0 51.961a19.981 19.981 0 1 1 19.953-19.98 19.989 19.989 0 0 1 -19.953 19.981z"/><path d="m307.3 388.341a31.981 31.981 0 1 0 -31.953-31.981 32 32 0 0 0 31.953 31.981zm0-51.962a19.981 19.981 0 1 1 -19.953 19.981 19.99 19.99 0 0 1 19.953-19.981z"/><path d="m464.618 40.71a6 6 0 0 0 -8.5-.072l-17.967 17.738a62.519 62.519 0 0 0 -12.238 72.024l2.312 4.727a35.769 35.769 0 0 0 11.051 13.142l-6.376 28.731a243.863 243.863 0 0 0 -5.389 66.929l10.7 185.048a80.772 80.772 0 0 0 9.182 33.106 14.653 14.653 0 0 0 12.886 7.917h.023a14.669 14.669 0 0 0 12.89-7.874 80.4 80.4 0 0 0 9.27-33.212l10.691-184.954a244.048 244.048 0 0 0 -5.389-66.943l-6.352-28.617a35.791 35.791 0 0 0 11.356-13.575l2.127-4.455a62.792 62.792 0 0 0 -11.752-70.738zm5.864 387.453a68.74 68.74 0 0 1 -7.892 28.34 2.657 2.657 0 0 1 -2.29 1.497 2.7 2.7 0 0 1 -2.321-1.566 68.479 68.479 0 0 1 -7.789-28.088l-10.49-181.394a104.266 104.266 0 0 0 41.257-.022zm11.025-193.638a92.809 92.809 0 0 1 -42.351 0 231.719 231.719 0 0 1 .96-26.247 96.947 96.947 0 0 0 40.43 0 231.729 231.729 0 0 1 .961 26.247zm-39.956-38.225q1.227-8.392 3.063-16.693l5.737-25.843a35.235 35.235 0 0 0 19.973.056l5.725 25.787q1.841 8.3 3.062 16.693a85.023 85.023 0 0 1 -37.56 0zm42.514-71.1-2.126 4.454a23.835 23.835 0 0 1 -42.935.206l-2.312-4.727a50.53 50.53 0 0 1 9.89-58.215l13.677-13.5 14.309 14.614a50.749 50.749 0 0 1 9.497 57.168z"/><path d="m469.047 77.693a6 6 0 0 0 -2.874 7.984 50.644 50.644 0 0 1 .858 41.151 6 6 0 1 0 11.06 4.654 62.66 62.66 0 0 0 -1.06-50.916 6 6 0 0 0 -7.984-2.873z"/><path d="m378.364 241h.283a32.378 32.378 0 0 0 27.424-49.965c-18.214-28.32-44.546-51.965-76.149-68.476-32.322-16.886-69.443-25.785-107.361-25.785-56.383 0-109.416 19.467-149.33 54.793a200.254 200.254 0 0 0 -14.931 14.675 6.059 6.059 0 0 0 8.973 8.145c36.607-39.975 92.616-65.587 155.288-65.587 35.991 0 71.194 8.455 101.8 24.447 29.545 15.437 54.165 37.491 71.241 63.808a21 21 0 0 1 1.124 21.411 20.144 20.144 0 0 1 -18.079 10.534h-.283c-30.718 0-55.709 25.223-55.709 55.971a55.888 55.888 0 0 0 55.709 55.867 20.679 20.679 0 0 1 17.3 31.9c-17.184 26.316-41.939 48.419-71.588 63.9a220.087 220.087 0 0 1 -101.518 24.447c-110.035.001-199.558-79.085-199.558-176.307a158.149 158.149 0 0 1 20.367-77.39 6.053 6.053 0 0 0 -1.571-7.733l-.02-.015a6.077 6.077 0 0 0 -9.04 1.882 170.412 170.412 0 0 0 -21.736 83.252c0 103.836 94.906 188.315 211.561 188.315 37.71 0 74.735-8.921 107.071-25.8 31.468-16.427 57.777-39.926 76.083-67.96a32.617 32.617 0 0 0 -27.351-50.387 43.971 43.971 0 0 1 0-87.941z"/></g></svg>