<svg id="Layer_1" height="512" viewBox="0 0 512 512" width="512" xmlns="http://www.w3.org/2000/svg" data-name="Layer 1"><path d="m459 357.35h-406a29.586 29.586 0 0 0 -29.59 29.59v3.33a29.586 29.586 0 0 0 29.59 29.59h406a29.586 29.586 0 0 0 29.59-29.59v-3.33a29.586 29.586 0 0 0 -29.59-29.59z" fill="#55d8d8"/><path d="m280.59 106.59v.73h-49.18v-39.92a24.59 24.59 0 1 1 49.18 0z" fill="#c79a83"/><path d="m69.01 419.86h373.98v49.34h-373.98z" fill="#6d7486"/><path d="m422.54 294.84h-333.08a29.6 29.6 0 0 0 -29.59 29.6v3.32a29.593 29.593 0 0 0 29.59 29.59h333.08a29.593 29.593 0 0 0 29.59-29.59v-3.32a29.6 29.6 0 0 0 -29.59-29.6z" fill="#e68fc1"/><path d="m401.7 232.34h-291.4a29.6 29.6 0 0 0 -29.6 29.59v3.32a29.588 29.588 0 0 0 29.6 29.59h291.4a29.588 29.588 0 0 0 29.6-29.59v-3.32a29.6 29.6 0 0 0 -29.6-29.59z" fill="#84d884"/><rect fill="#aea7e8" height="62.51" rx="29.59" width="282.34" x="114.83" y="169.83"/><rect fill="#4baaf7" height="62.51" rx="29.59" width="214.1" x="148.95" y="107.32"/><path d="m53.41 390.27v-3.33a29.586 29.586 0 0 1 29.59-29.59h-30a29.586 29.586 0 0 0 -29.59 29.59v3.33a29.586 29.586 0 0 0 29.59 29.59h30a29.586 29.586 0 0 1 -29.59-29.59z" fill="#7cf7f4"/><path d="m261.41 106.59v-39.19a24.554 24.554 0 0 1 9.59-19.49 24.587 24.587 0 0 0 -39.59 19.49v39.92h30z" fill="#ddb39f"/><path d="m83 419.86h-13.99v49.34h30v-49.34z" fill="#b0b5ca"/><path d="m89.87 327.76v-3.32a29.6 29.6 0 0 1 29.59-29.6h-30a29.6 29.6 0 0 0 -29.59 29.6v3.32a29.593 29.593 0 0 0 29.59 29.59h30a29.593 29.593 0 0 1 -29.59-29.59z" fill="#ff9fdf"/><path d="m140.3 294.84a29.588 29.588 0 0 1 -29.6-29.59v-3.32a29.6 29.6 0 0 1 29.6-29.59h-30a29.6 29.6 0 0 0 -29.6 29.59v3.32a29.588 29.588 0 0 0 29.6 29.59z" fill="#c0ffc0"/><path d="m144.83 202.75v-3.33a29.593 29.593 0 0 1 29.59-29.59h-30a29.593 29.593 0 0 0 -29.59 29.59v3.33a29.593 29.593 0 0 0 29.59 29.59h30a29.593 29.593 0 0 1 -29.59-29.59z" fill="#d4d2ff"/><path d="m178.95 140.24v-3.33a29.593 29.593 0 0 1 29.59-29.59h-30a29.593 29.593 0 0 0 -29.59 29.59v3.33a29.593 29.593 0 0 0 29.59 29.59h30a29.593 29.593 0 0 1 -29.59-29.59z" fill="#49bdff"/><g fill="#284268"><path d="m459 351.35h-9.843a35.436 35.436 0 0 0 8.973-23.59v-3.32a35.654 35.654 0 0 0 -30.17-35.188 35.444 35.444 0 0 0 9.34-24v-3.32a35.636 35.636 0 0 0 -35.6-35.59h-7.5a35.434 35.434 0 0 0 8.973-23.59v-3.33a35.63 35.63 0 0 0 -35.59-35.59h-7.5a35.434 35.434 0 0 0 8.973-23.59v-3.33a35.631 35.631 0 0 0 -35.59-35.59h-46.876v-33.922a30.59 30.59 0 1 0 -61.18 0v33.92h-46.87a35.631 35.631 0 0 0 -35.59 35.59v3.33a35.434 35.434 0 0 0 8.973 23.59h-7.5a35.63 35.63 0 0 0 -35.59 35.59v3.33a35.434 35.434 0 0 0 8.973 23.59h-7.5a35.636 35.636 0 0 0 -35.6 35.59v3.32a35.444 35.444 0 0 0 9.34 24 35.654 35.654 0 0 0 -30.176 35.19v3.32a35.436 35.436 0 0 0 8.973 23.59h-9.843a35.63 35.63 0 0 0 -35.59 35.59v3.33a35.63 35.63 0 0 0 35.59 35.59h10.01v43.34a6 6 0 0 0 6 6h373.98a6 6 0 0 0 6-6v-43.34h10.01a35.63 35.63 0 0 0 35.59-35.59v-3.33a35.63 35.63 0 0 0 -35.59-35.59zm-221.59-283.95a18.59 18.59 0 1 1 37.18 0v33.92h-37.18zm-82.46 69.51a23.616 23.616 0 0 1 23.59-23.59h154.92a23.616 23.616 0 0 1 23.59 23.59v3.33a23.616 23.616 0 0 1 -23.59 23.59h-154.92a23.616 23.616 0 0 1 -23.59-23.59zm-68.25 125.02a23.622 23.622 0 0 1 23.6-23.59h192.7a6 6 0 0 0 0-12h-158.58a23.617 23.617 0 0 1 -23.59-23.59v-3.33a23.617 23.617 0 0 1 23.59-23.59h223.16a23.617 23.617 0 0 1 23.59 23.59v3.33a23.617 23.617 0 0 1 -23.59 23.59h-35.58a6 6 0 0 0 0 12h69.7a23.622 23.622 0 0 1 23.6 23.59v3.32a23.622 23.622 0 0 1 -23.6 23.59h-291.4a23.622 23.622 0 0 1 -23.6-23.59zm350.29 201.27h-361.98v-37.34h361.98zm45.6-72.93a23.617 23.617 0 0 1 -23.59 23.59h-406a23.617 23.617 0 0 1 -23.59-23.59v-3.33a23.617 23.617 0 0 1 23.59-23.59h95a6 6 0 0 0 0-12h-58.54a23.616 23.616 0 0 1 -23.59-23.59v-3.32a23.622 23.622 0 0 1 23.59-23.6h333.08a23.622 23.622 0 0 1 23.59 23.6v3.32a23.616 23.616 0 0 1 -23.59 23.59h-247.54a6 6 0 0 0 0 12h284a23.617 23.617 0 0 1 23.59 23.59z"/><path d="m198.67 135.32h24.79a6 6 0 0 0 0-12h-24.79a6 6 0 0 0 0 12z"/><path d="m178.54 135.32h3.13a6 6 0 1 0 0-12h-3.13a6 6 0 0 0 0 12z"/><path d="m207.58 185.83h-39.91a6 6 0 0 0 0 12h39.91a6 6 0 0 0 0-12z"/><path d="m150 185.83h-5.58a6 6 0 0 0 0 12h5.58a6 6 0 0 0 0-12z"/><path d="m133.67 260.34h78.03a6 6 0 0 0 0-12h-78.03a6 6 0 1 0 0 12z"/><path d="m110.3 260.34h6.03a6 6 0 1 0 0-12h-6.03a6 6 0 0 0 0 12z"/><path d="m218.54 316.84a6 6 0 0 0 -6-6h-100.21a6 6 0 1 0 0 12h100.21a6 6 0 0 0 6-6z"/><path d="m95.67 310.84h-6.21a6 6 0 1 0 0 12h6.21a6 6 0 1 0 0-12z"/><path d="m229 373.35h-150.67a6 6 0 1 0 0 12h150.67a6 6 0 0 0 0-12z"/><path d="m59.71 373.85h-6.71a6 6 0 0 0 0 12h6.71a6 6 0 0 0 0-12z"/></g></svg>